<?xml version="1.0" encoding="utf-8"?>
<!-- Generator: Adobe Illustrator 26.5.0, SVG Export Plug-In . SVG Version: 6.00 Build 0)  -->
<svg version="1.1" id="Layer_1" xmlns="http://www.w3.org/2000/svg" xmlns:xlink="http://www.w3.org/1999/xlink" x="0px" y="0px"
	 viewBox="0 0 508.85 447.4" style="enable-background:new 0 0 508.85 447.4;" xml:space="preserve">
<style type="text/css">
	.st0{fill:#FFFFFF;}
</style>
<g>
	<path class="st0" d="M152.63,75.38c0-1.25,0-2.13,0-3.01c-0.02-7.79,0.34-15.61-0.23-23.36c-0.28-3.8-1.68-7.85-3.64-11.14
		c-4.93-8.28-12.77-11.9-22.29-11.91c-27.52-0.03-55.05-0.01-82.57-0.01c-6.5,0-12.99-0.1-19.48,0.05
		C12.47,26.26,2.35,35.11,0.36,46.91c-0.24,1.43-0.33,2.9-0.33,4.36C0.01,83.81,0.04,116.36,0,148.9
		c-0.01,8.1,3.13,14.69,9.33,19.73c5.11,4.15,11.13,5.71,17.71,5.68c23.95-0.08,47.9-0.01,71.85-0.08c1.96-0.01,3.01,0.64,3.99,2.31
		c18.38,31.34,36.83,62.64,55.27,93.95c0.47,0.8,0.99,1.56,1.63,2.57c10.36-15.91,24.87-24.05,43.89-24.63
		c-0.74-1.3-1.29-2.27-1.85-3.23c-16.01-27.27-32.03-54.53-47.98-81.84c-0.73-1.25-1.15-2.86-1.16-4.31
		c-0.1-10.47-0.05-20.94-0.05-31.41c0-0.87,0-1.73,0-2.82c59.45,0,118.59,0,177.82,0c0-16.57,0-32.91,0-49.46
		C271.18,75.38,212.09,75.38,152.63,75.38z M254.28,421.49c16.64,0,33.28,0.03,49.92-0.03c2.41-0.01,4.89-0.2,7.23-0.77
		c10.34-2.51,19.36-11.51,19.27-25.38c-0.19-31.97-0.06-63.95-0.06-95.92c0-0.89-0.04-1.78-0.09-2.68
		c-0.79-12.79-10.55-22.72-23.37-23.38c-6.88-0.36-13.79-0.18-20.69-0.19c-27.28-0.02-54.55,0.15-81.83-0.07
		c-14.24-0.12-26.83,10.42-26.66,26.62c0.34,31.73,0.09,63.46,0.12,95.19c0,2.34,0.07,4.74,0.58,7.01
		c2.61,11.67,12.6,19.53,24.92,19.57C220.51,421.54,237.39,421.49,254.28,421.49z M432.32,174.29c16.64,0,33.29-0.15,49.93,0.05
		c15.1,0.18,26.8-11.58,26.59-26.72c-0.43-31.81-0.37-63.64-0.03-95.45c0.16-15-11.79-26.33-26.27-26.27
		c-33.45,0.15-66.9,0.13-100.35,0.01c-14.38-0.05-26.44,11.01-26.15,26.08c0.29,14.85,0.06,29.71,0.06,44.56
		c0,17.29,0.05,34.58-0.03,51.87c-0.02,5.19,1.11,9.99,3.98,14.3c5.41,8.13,13.22,11.6,22.82,11.58
		C399.36,174.27,415.84,174.29,432.32,174.29z"/>
	<path d="M152.63,75.38c59.47,0,118.55,0,177.82,0c0,16.55,0,32.89,0,49.46c-59.23,0-118.37,0-177.82,0c0,1.09,0,1.96,0,2.82
		c0,10.47-0.04,20.94,0.05,31.41c0.01,1.45,0.43,3.07,1.16,4.31c15.95,27.3,31.97,54.57,47.98,81.84c0.56,0.96,1.11,1.93,1.85,3.23
		c-19.02,0.58-33.53,8.72-43.89,24.63c-0.64-1.01-1.16-1.78-1.63-2.57c-18.44-31.31-36.89-62.61-55.27-93.95
		c-0.98-1.67-2.02-2.32-3.99-2.31c-23.95,0.07-47.9,0-71.85,0.08c-6.57,0.02-12.6-1.53-17.71-5.68c-6.2-5.04-9.34-11.63-9.33-19.73
		c0.04-32.55,0.01-65.1,0.03-97.64c0-1.45,0.09-2.93,0.33-4.36c1.99-11.79,12.11-20.64,24.05-20.91c6.49-0.15,12.99-0.05,19.48-0.05
		c27.52,0,55.05-0.02,82.57,0.01c9.52,0.01,17.36,3.63,22.29,11.91c1.96,3.3,3.36,7.34,3.64,11.14c0.57,7.75,0.21,15.57,0.23,23.36
		C152.63,73.24,152.63,74.12,152.63,75.38z"/>
	<path d="M254.28,421.49c-16.88,0-33.77,0.05-50.65-0.02c-12.32-0.05-22.31-7.9-24.92-19.57c-0.51-2.27-0.58-4.67-0.58-7.01
		c-0.04-31.73,0.21-63.46-0.12-95.19c-0.17-16.2,12.42-26.74,26.66-26.62c27.27,0.22,54.55,0.06,81.83,0.07
		c6.9,0,13.81-0.17,20.69,0.19c12.82,0.66,22.58,10.59,23.37,23.38c0.05,0.89,0.09,1.78,0.09,2.68c0,31.97-0.13,63.95,0.06,95.92
		c0.08,13.86-8.93,22.86-19.27,25.38c-2.34,0.57-4.81,0.76-7.23,0.77C287.56,421.52,270.92,421.49,254.28,421.49z"/>
	<path d="M432.32,174.29c-16.48,0-32.96-0.02-49.45,0.01c-9.59,0.01-17.41-3.46-22.82-11.58c-2.87-4.31-4-9.11-3.98-14.3
		c0.07-17.29,0.03-34.58,0.03-51.87c0-14.85,0.22-29.71-0.06-44.56c-0.29-15.08,11.77-26.14,26.15-26.08
		c33.45,0.12,66.9,0.14,100.35-0.01c14.48-0.06,26.43,11.27,26.27,26.27c-0.34,31.81-0.4,63.64,0.03,95.45
		c0.2,15.14-11.5,26.9-26.59,26.72C465.61,174.13,448.97,174.29,432.32,174.29z"/>
</g>
</svg>
