<?xml version="1.0" encoding="utf-8"?>
<!-- Generator: Adobe Illustrator 26.2.1, SVG Export Plug-In . SVG Version: 6.00 Build 0)  -->
<svg version="1.1" id="Layer_1" xmlns="http://www.w3.org/2000/svg" xmlns:xlink="http://www.w3.org/1999/xlink" x="0px" y="0px"
	 viewBox="0 0 800 800" style="enable-background:new 0 0 800 800;" xml:space="preserve">
<style type="text/css">
	.st0{fill:#010101;}
</style>
<path class="st0" d="M412.21,614.16c-2.13-1.12-4.75-2.07-6.86-3.69c-14.89-11.52-29.71-23.16-44.49-34.85
	c-1.63-1.3-2.8-1.24-4.66-0.47c-8.92,3.74-17.88,7.31-26.91,10.75c-1.8,0.68-2.23,1.56-2.38,3.3c-1.77,20.18-4.62,40.2-9.11,59.97
	c-1.63,7.19-5.6,10.67-12.94,10.7c-24.92,0.08-49.82,0.08-74.73,0c-7.4-0.03-11.84-3.8-12.97-10.97c-3.1-19.66-6.1-39.34-9.04-59.02
	c-0.27-1.85-1.06-2.56-2.66-3.19c-8.67-3.45-17.32-6.95-25.9-10.61c-1.94-0.83-3.21-0.89-4.98,0.45
	c-14.97,11.43-30.03,22.74-45.08,34.07c-6.51,4.92-11.91,4.92-18.36,0.08c-23.19-17.41-42.37-38.43-57.17-63.38
	c-0.77-1.32-1.09-3.41-0.64-4.81c0.76-2.35,2.07-4.6,3.56-6.6c10.78-14.62,21.65-29.18,32.54-43.73c1.32-1.76,1.56-3.1,0.56-5.3
	c-4.15-9.22-8.01-18.56-11.82-27.91c-0.82-2.01-1.68-3.06-4.07-3.44c-19.13-2.91-38.24-6.07-57.35-9.05
	c-8.2-1.29-11.72-5.16-11.73-13.49c-0.03-12.34,0-24.69,0-37.03c0-11.79,0-23.58,0.02-35.38c0-1.32-0.02-2.66,0.2-3.95
	c1.18-6.99,5.03-10.64,12.25-11.76c19.03-2.94,38.04-5.9,57.07-8.76c2.68-0.41,4.01-1.51,5.03-4.15
	c3.27-8.51,6.89-16.88,10.54-25.23c0.8-1.85,0.85-3.09-0.44-4.72c-11.35-14.33-22.54-28.79-33.92-43.09
	c-5.65-7.08-5.86-13.73,0.39-20.36c10.11-10.75,20.39-21.36,30.82-31.77c5.98-5.96,12.28-11.64,18.74-17.09
	c2.91-2.45,6.57-4,9.87-5.96c5.13-3.07,9.87-2.09,14.35,1.42c9.37,7.34,18.72,14.68,28.08,22.04c5.37,4.22,10.78,8.4,16.09,12.68
	c1.5,1.21,2.66,1.2,4.44,0.44c8.76-3.8,17.59-7.46,26.47-11c1.97-0.79,2.97-1.59,3.13-3.89c1.47-20.45,4.78-40.61,9.25-60.61
	c1.21-5.43,5.54-9.07,11.1-9.08c25.79-0.08,51.59-0.08,77.37,0.02c6.36,0.02,10.85,4.09,11.88,10.23
	c3.35,19.95,6.71,39.9,10.02,59.85c0.33,2,1.14,3.16,3.21,3.97c8.6,3.32,17.15,6.81,25.61,10.46c2.03,0.88,3.28,0.71,4.98-0.62
	c14.71-11.4,29.52-22.71,44.29-34.01c5.52-4.22,11.47-4.44,17.04-0.32c23.67,17.51,43.11,38.89,58.22,64.2
	c2.16,3.63,0.17,6.68-1.8,9.4c-3.59,5.01-7.54,9.76-11.31,14.65c-7.58,9.87-15.11,19.78-22.74,29.61c-1.21,1.57-1.44,2.82-0.62,4.72
	c4.09,9.6,7.93,19.31,12.03,28.91c0.48,1.14,1.98,2.44,3.16,2.57c19.1,2.38,38.24,4.63,57.37,6.83c8.02,0.92,12.17,5.43,12.19,13.61
	c0.02,25.13,0.02,50.25,0,75.38c0,8.02-4.1,12.73-12,13.93c-19.24,2.92-38.48,5.87-57.73,8.73c-2.24,0.33-3.3,1.36-4.13,3.48
	c-3.44,8.69-7.04,17.3-10.76,25.85c-0.82,1.88-0.76,3.12,0.51,4.72c11.05,14.02,22.01,28.09,33,42.16c0.47,0.61,0.98,1.18,1.45,1.8
	c4.9,6.3,4.95,12.59-0.38,18.5c-10.04,11.13-20.21,22.13-30.44,33.07c-4.72,5.06-9.32,10.37-14.74,14.62
	c-5.48,4.3-11.88,7.46-17.92,11.03C415.23,613.56,413.95,613.66,412.21,614.16z M162.15,397.57
	c-0.14,57.84,47.05,105.1,105.01,105.17c57.37,0.09,104.79-47.02,104.94-104.23c0.17-58.69-46.35-105.99-104.78-105.88
	C207.58,292.76,161.91,341.12,162.15,397.57z"/>
<path class="st0" d="M791.92,607.38c0,8.6-0.06,17.2,0.05,25.79c0.03,2.06-0.67,3.04-2.5,4c-18.09,9.42-37.36,13.44-57.66,12.91
	c-2.21-0.06-3.21,0.59-4.24,2.57c-2.89,5.56-6.04,10.97-9.35,16.3c-1.14,1.83-1.29,3.18-0.29,5.09
	c8.84,16.83,15.08,34.63,19.45,53.12c0.59,2.51-0.02,3.72-2.19,4.96c-15.23,8.61-30.43,17.29-45.55,26.1
	c-2.19,1.29-3.65,1.01-5.6-0.35c-7.86-5.48-13.11-13.28-18.74-20.74c-5.63-7.48-11.23-14.99-17.03-22.33
	c-0.91-1.17-2.79-2.07-4.28-2.18c-7.13-0.53-14.29-0.82-21.43-0.97c-1.14-0.03-2.71,0.71-3.41,1.6
	c-8.48,10.97-16.62,22.22-25.32,33.03c-3.41,4.22-7.96,7.55-12.14,11.13c-0.64,0.54-2.32,0.56-3.1,0.12
	c-15.8-8.95-31.52-18.03-47.32-26.99c-2.06-1.17-1.94-2.53-1.51-4.39c4.22-18.41,10.49-36.07,19.25-52.81
	c1.18-2.26,1.04-3.77-0.32-5.92c-3.25-5.09-6.27-10.35-8.99-15.74c-1.14-2.24-2.35-2.89-4.77-2.83
	c-19.22,0.5-37.62-3.07-55.08-11.31c-1.97-0.92-2.69-1.95-2.68-4.18c0.11-17.2,0.09-34.39,0.02-51.57c-0.02-2.01,0.51-3.1,2.41-4.03
	c18.3-8.81,37.49-13.2,57.84-12.12c2.09,0.11,3.03-0.58,4-2.41c2.98-5.63,6.18-11.14,9.51-16.58c1.03-1.68,1.36-2.91,0.38-4.75
	c-8.92-16.92-15.21-34.8-19.54-53.42c-0.59-2.54,0.03-3.74,2.23-4.95c15.64-8.57,31.18-17.27,46.83-25.81
	c0.94-0.51,2.92-0.41,3.68,0.26c4.6,4.07,9.49,7.98,13.37,12.7c8.16,9.96,15.73,20.4,23.63,30.58c0.68,0.88,2.1,1.63,3.21,1.67
	c6.83,0.15,13.67,0.2,20.5-0.03c1.32-0.05,2.98-1.23,3.83-2.38c10.69-14.47,22.48-27.99,34.95-40.93c2.56-2.66,4.77-2.89,7.78-1.15
	c13.05,7.54,26.16,14.99,39.25,22.46c2.19,1.26,4.34,2.63,6.63,3.69c2.06,0.95,2.26,2.29,1.79,4.25
	c-4.31,18.48-10.51,36.3-19.31,53.15c-1.17,2.23-1.1,3.78,0.29,5.95c3.27,5.09,6.3,10.32,9.08,15.68c1.07,2.07,2.16,2.8,4.48,2.72
	c19.24-0.61,37.59,3.28,55.11,11.22c2.09,0.94,2.92,2.01,2.88,4.39C791.82,590.41,791.92,598.89,791.92,607.38z M686.98,608.12
	c-0.17-29.88-23.16-52.74-52.87-52.56c-28.52,0.17-51.34,23.6-51.19,52.56c0.17,28.47,23.63,51.8,51.86,51.56
	C663.88,659.44,687.15,636.46,686.98,608.12z"/>
<path class="st0" d="M477.26,187.69c0-8.37,0.08-16.76-0.05-25.13c-0.03-2.27,0.62-3.42,2.77-4.48
	c17.98-8.84,37.01-12.52,56.95-11.69c2.69,0.11,3.74-0.85,4.9-3.09c2.77-5.36,5.84-10.58,9.05-15.7c1.14-1.8,1.42-3.1,0.36-5.06
	c-9.08-16.86-15.11-34.85-19.51-53.43c-0.5-2.12-0.17-3.38,1.88-4.54c15.39-8.76,30.74-17.62,46.03-26.58c2.1-1.23,3.41-0.53,5,0.62
	c7.16,5.18,12.5,12,17.73,19.01c6.05,8.11,12.31,16.09,18.59,24.04c0.68,0.86,2.13,1.54,3.25,1.59c6.93,0.2,13.9,0.33,20.83,0.14
	c1.41-0.05,3.09-1.3,4.1-2.47c11.67-13.49,23.27-27.03,34.78-40.64c2.47-2.92,4.9-3.07,8.05-1.26
	c13.53,7.83,27.13,15.52,40.67,23.31c7.54,4.34,7.51,4.39,5.42,12.65c-4.18,16.59-10.05,32.54-18,47.7
	c-1.12,2.13-0.97,3.59,0.33,5.63c3.3,5.19,6.36,10.55,9.22,15.98c1.03,1.95,2.01,2.68,4.25,2.6c19.36-0.68,37.81,3.19,55.43,11.26
	c2,0.91,2.71,1.95,2.69,4.18c-0.11,16.97-0.11,33.94,0,50.92c0.02,2.38-0.8,3.44-2.88,4.39c-18.47,8.46-37.78,12.31-58.08,10.97
	c-1.85-0.12-2.68,0.39-3.54,2c-3.13,5.8-6.39,11.53-9.82,17.17c-1.01,1.65-1.1,2.83-0.23,4.48c8.73,16.64,14.94,34.21,19.38,52.45
	c0.74,3.04,0.32,4.65-2.62,6.28c-15.18,8.48-30.23,17.18-45.27,25.91c-1.79,1.03-3.19,1.23-4.68-0.21
	c-4.34-4.19-9.19-7.99-12.93-12.65c-8.2-10.22-15.82-20.89-23.77-31.3c-0.67-0.88-2.12-1.57-3.22-1.6
	c-6.72-0.15-13.44-0.18-20.16,0.03c-1.23,0.05-2.72,1.12-3.56,2.16c-9.16,11.56-18.01,23.37-27.38,34.75
	c-3.03,3.66-7.25,6.39-11.1,9.29c-0.83,0.62-2.74,0.7-3.66,0.17c-15.62-8.81-31.15-17.8-46.76-26.64c-2-1.14-2.44-2.35-1.94-4.53
	c4.22-18.53,10.54-36.3,19.35-53.15c1.09-2.09,1.07-3.53-0.27-5.62c-3.24-4.96-6.18-10.14-8.9-15.41c-1.2-2.32-2.32-3.33-5.15-3.28
	c-19.07,0.32-37.4-3.15-54.77-11.34c-2.13-1.01-2.8-2.18-2.77-4.47C477.33,204.66,477.26,196.19,477.26,187.69z M686.96,188.62
	c0.06-29.27-23.05-52.8-52.03-52.93c-29.38-0.15-53.95,24.45-53.99,54.04c-0.05,28.75,23.39,51.77,52.95,51.98
	C662.28,241.93,686.9,217.29,686.96,188.62z"/>
</svg>
