<?xml version="1.0" encoding="utf-8"?>
<!-- Generator: Adobe Illustrator 26.5.0, SVG Export Plug-In . SVG Version: 6.00 Build 0)  -->
<svg version="1.1" id="Layer_1" xmlns="http://www.w3.org/2000/svg" xmlns:xlink="http://www.w3.org/1999/xlink" x="0px" y="0px"
	 viewBox="0 0 508.85 447.4" style="enable-background:new 0 0 508.85 447.4;" xml:space="preserve">
<g>
	<g>
		<path d="M1.35,228.7c0-38.45,0-76.89,0-115.34c0.17-0.16,0.4-0.3,0.51-0.49c6.18-11.48,15.78-17.03,28.84-17
			c31,0.08,61.99,0.03,92.99,0.03c0.98,0,1.95,0,3.17,0c0-1.14,0-2.03,0-2.92c0-14.98-0.06-29.96,0.01-44.93
			c0.12-26.62,21.32-47.94,47.94-47.99c53.33-0.09,106.66-0.09,159.98,0.08c4.99,0.02,10.2,0.83,14.93,2.39
			c20.36,6.71,33.08,24.72,33.11,46.16c0.02,14.81,0,29.62,0,44.43c0,0.88,0,1.76,0,2.78c1.34,0,2.33,0,3.31,0
			c31.5,0,62.99-0.03,94.49,0.02c9.15,0.02,16.89,3.48,22.81,10.49c2.06,2.43,3.61,5.29,5.39,7.96c0,38.11,0,76.23,0,114.34
			C339.68,228.7,170.51,228.7,1.35,228.7z M334.68,95.79c0-16.04,0-31.87,0-47.64c-53.37,0-106.56,0-159.7,0
			c0,15.98,0,31.75,0,47.64C228.24,95.79,281.37,95.79,334.68,95.79z"/>
		<path d="M1.35,428.43c0-55.92,0-111.84,0-167.77c55.12,0,110.24,0,165.59,0c0,26.45,0,52.53,0,78.64c56.08,0,111.93,0,168.01,0
			c0-26.28,0-52.37,0-78.64c58.12,0,116.01,0,173.91,0c0,55.42,0,110.85,0,166.27c-0.37,0.73-0.74,1.47-1.12,2.2
			c-6.06,11.64-15.64,18.19-28.78,18.2c-149.4,0.11-298.79,0.07-448.19,0.06c-6.95,0-13.18-2.24-18.86-6.25
			C7.22,437.82,4.21,433.2,1.35,428.43z"/>
	</g>
</g>
</svg>
