<?xml version="1.0" encoding="utf-8"?>
<!-- Generator: Adobe Illustrator 26.3.1, SVG Export Plug-In . SVG Version: 6.00 Build 0)  -->
<svg version="1.1" id="Layer_1" xmlns="http://www.w3.org/2000/svg" xmlns:xlink="http://www.w3.org/1999/xlink" x="0px" y="0px"
	 viewBox="0 0 512 512" style="enable-background:new 0 0 512 512;" xml:space="preserve">
<g id="rlMqPQ.tif">
	<g>
		<path d="M16,404c0-102.9,0-205.7,0-308.6C20.4,80.2,31.1,70.8,44.6,64c129.5,0,259,0,388.6,0c21.7,8.4,30.9,23.9,29.4,47.4
			c-1.3,20.1-0.3,40.3-0.3,60.9c19.3,3.3,28.4,15.6,33.7,31.7c0,29.5,0,59,0,88.6c-5.2,16.9-15.2,29.2-33.8,32.3c0,22.6,0,44,0,65.4
			c-0.1,33.8-11.8,45.6-45.3,45.6c-117.5,0-235.1,0-352.6,0C34.1,435.9,27.3,431.4,16,404z M433.4,172.5c0-22.3-0.6-42.3,0.2-62.2
			c0.6-12.5-3.8-16.6-16.2-16.5c-118.6,0.3-237.1,0.4-355.7,0c-12.7,0-16.3,4.5-16.2,16.7c0.4,93.3,0.4,186.7,0,280
			c-0.1,13.4,4.3,16.7,17.3,16.6c118.1-0.5,236.2-0.3,354.3-0.3c2.9,0,6.3,0.9,8.4-0.3c3.1-1.8,7.5-5.1,7.6-7.8
			c0.6-24.6,0.3-49.1,0.3-74.7c-32.6,0-63.5,0-94.3,0c-25.9,0-39.7-13.4-40-39.2c-0.2-22.9-0.1-45.7,0-68.6
			c0.1-30.6,12.8-43.5,43.2-43.6C372.1,172.5,402,172.5,433.4,172.5z M397.2,295.4c18.5,0,37-0.4,55.5,0.2
			c9.7,0.3,13.9-2.7,13.7-12.7c-0.4-22.8-0.3-45.6,0-68.4c0.1-9.5-3.4-13.6-13.4-13.5c-37.5,0.4-75,0.3-112.5,0
			c-9-0.1-13,3.2-12.9,12.4c0.3,23.3,0.3,46.5,0,69.8c-0.1,9.2,3.3,12.6,12.6,12.3C359.2,295,378.2,295.4,397.2,295.4z"/>
		<path d="M354,269.4c0-14.7,0-28.7,0-43.6c15,0,29.5,0,44.7,0c0,14.8,0,28.8,0,43.6C383.5,269.4,369.1,269.4,354,269.4z"/>
	</g>
</g>
</svg>
