<?xml version="1.0" encoding="utf-8"?>
<!-- Generator: Adobe Illustrator 26.5.0, SVG Export Plug-In . SVG Version: 6.00 Build 0)  -->
<svg version="1.1" id="Layer_1" xmlns="http://www.w3.org/2000/svg" xmlns:xlink="http://www.w3.org/1999/xlink" x="0px" y="0px"
	 viewBox="0 0 576 512" style="enable-background:new 0 0 576 512;" xml:space="preserve">
<path d="M61.8,339.71c5.29,1.21,10.79,1.96,16.43,2.2v-146.1c-5.64,0.24-11.14,0.99-16.43,2.2V339.71z M28.93,324.48
	c5,3.79,10.51,7.06,16.43,9.72V203.52c-5.92,2.65-11.43,5.92-16.43,9.72V324.48z M94.67,170.49V342h16.43V150.56
	C104.67,156.5,99.12,163.19,94.67,170.49z M12.5,307.56v-77.4C4.59,241.39,0,254.65,0,268.86C0,283.06,4.59,296.32,12.5,307.56z
	 M160.4,342h16.43V122.88c-5.62,0.4-11.11,1.21-16.43,2.38V342z M226.13,342h16.43V138.18c-5.16-3.1-10.66-5.79-16.43-8.03V342z
	 M127.53,342h16.43V130.22c-5.77,2.25-11.27,4.94-16.43,8.05V342z M493.71,195.71C493.71,135.14,438.43,86,370.29,86
	c-48.96,0-91.27,25.36-111.29,62.14V342h234.71c45.39,0,82.29-32.8,82.29-73.14C576,228.51,539.1,195.71,493.71,195.71z M193.27,342
	h16.43V125.21c-5.33-1.17-10.82-1.97-16.43-2.36V342z"/>
</svg>
