<?xml version="1.0" encoding="utf-8"?>
<!-- Generator: Adobe Illustrator 26.3.1, SVG Export Plug-In . SVG Version: 6.00 Build 0)  -->
<svg version="1.1" id="Layer_1" xmlns="http://www.w3.org/2000/svg" xmlns:xlink="http://www.w3.org/1999/xlink" x="0px" y="0px"
	 viewBox="0 0 448 512" style="enable-background:new 0 0 448 512;" xml:space="preserve">
<style type="text/css">
	.st0{fill:#FFFFFF;}
</style>
<g>
	<g>
		<path class="st0" d="M112.1,323.9c0.5,6.7,2.7,11.2,6.8,14.8c13.9,12.2,27.8,24.4,41.6,36.6c5.8,5.1,12.3,6.5,19.7,4.2
			c17.1-5.2,33.3-12.5,48.9-21.2c51.8-29,95.5-67.5,131.8-114.4c24.9-32.2,45.3-66.9,59.4-105.1c0.7-1.8,0.6-2.9-1-4.3
			C387.7,106.8,356,79,324.4,51.2c-1.3-1.1-2.1-1.4-3.7-0.5C310.5,56.8,299.9,62.3,290,69c-65.4,44-115.2,101.7-150.3,172.2
			c-11.7,23.5-21.1,47.8-26.2,73.6C112.9,318.2,112.4,321.7,112.1,323.9z M359.8,272.1c-30.7,36.1-65.9,66.2-105.7,91.2
			c7.9,8.5,9.5,18.6,8.8,29.4c-0.7,11.4-4,22.1-7.9,32.7c-5,13.4-11.9,25.9-18.6,38.5c-2.3,4.2-1.7,8.3,1.3,11.1
			c3,2.8,7.1,2.9,11.1,0.4c16.6-10.7,32.4-22.3,47.1-35.4c25.2-22.2,46.2-47.6,61-77.9c4.8-9.7,7.2-19.7,6.6-30.4
			c-1-18.1-2.2-36.2-3.3-54.4C360.1,275.8,360,274.2,359.8,272.1z M195.8,128.4c-20.7,1.3-41.2,2.5-61.6,4.1
			c-7.7,0.6-15.2,2.8-21.9,6.9c-20,12.4-37.6,27.6-53,45.4c-20.7,24-36.9,51-50.5,79.6c-2.1,4.4-1.5,8.5,1.7,11.2
			c3.1,2.6,7.2,2.5,11.2-0.2c6.2-4.3,12.3-8.9,18.6-13c13.2-8.8,26.9-16.5,42.3-20.9c12.5-3.6,25-4.8,36.7,3.3
			C138.9,202.2,164.2,163.4,195.8,128.4z M69.7,437.5c-0.6-14.8,1.9-28.5,7-41.7c6.9-17.8,19.5-30.5,35.7-39.8
			c-4-4.1-8-8.2-12.1-12.5c-0.5,0.2-1.4,0.4-2.3,0.7c-22.9,8.4-39.9,23.7-51,45.2c-9.8,18.9-13.2,39.4-12.3,60.6
			c0.2,5.7,1.5,11.5,2.6,17.1c0.7,3.7,3.3,5.8,7,6.2c2.8,0.3,5.7,0.8,8.5,0.8c21.9-0.2,42.4-5.8,61.4-16.7
			c19.7-11.3,32.9-28.2,41-49.1c1.7-4.5,2.6-9.3,3.9-13.7c-2.9-1.8-5.5-3.2-7.7-4.9c-2.2-1.8-4.1-3.9-6.3-6.1
			C131.2,418,104.4,432.7,69.7,437.5z M339.7,41c29.4,25.8,58.5,51.4,87.5,76.8c-0.1,0.2,0,0.1,0.1-0.1c6.5-22.7,10.8-45.8,9.8-69.6
			c-0.3-6.3-1.7-12.6-2.8-18.9c-0.7-3.9-3.4-6.1-7.4-6.4c-4.7-0.4-9.4-0.8-14.1-0.6c-13.9,0.5-27.4,3.3-40.6,7.5
			C361.3,33.2,350.4,37.3,339.7,41z"/>
		<path d="M112.1,323.9c0.3-2.1,0.8-5.6,1.4-9.1c5.1-25.8,14.5-50.2,26.2-73.6C174.8,170.7,224.6,113,290,69
			c9.9-6.6,20.5-12.2,30.7-18.3c1.5-0.9,2.4-0.6,3.7,0.5c31.6,27.8,63.3,55.6,94.9,83.3c1.6,1.4,1.7,2.4,1,4.3
			c-14.2,38.3-34.6,73-59.4,105.1c-36.3,46.9-80,85.4-131.8,114.4c-15.6,8.7-31.8,16.1-48.9,21.2c-7.4,2.2-13.9,0.9-19.7-4.2
			c-13.9-12.2-27.8-24.4-41.6-36.6C114.8,335.1,112.6,330.6,112.1,323.9z M301.8,206.3c17.3-1.1,30.6-16.1,29.5-33.3
			c-1-17.2-16.1-30.6-33.4-29.5c-17.2,1-30.5,16.1-29.5,33.3C269.5,194,284.6,207.3,301.8,206.3z"/>
		<path d="M359.8,272.1c0.1,2,0.2,3.7,0.3,5.3c1.1,18.1,2.4,36.2,3.3,54.4c0.6,10.7-1.8,20.7-6.6,30.4c-14.9,30.3-35.8,55.7-61,77.9
			c-14.8,13-30.6,24.7-47.1,35.4c-4,2.6-8.1,2.4-11.1-0.4c-3-2.8-3.6-6.8-1.3-11.1c6.7-12.6,13.6-25.1,18.6-38.5
			c3.9-10.6,7.2-21.3,7.9-32.7c0.7-10.8-0.9-21-8.8-29.4C293.9,338.3,329.2,308.2,359.8,272.1z"/>
		<path d="M195.8,128.4c-31.6,35-56.9,73.8-76.7,116.4c-11.7-8.1-24.1-6.9-36.7-3.3c-15.4,4.4-29.1,12.2-42.3,20.9
			c-6.3,4.2-12.4,8.7-18.6,13c-3.9,2.7-8.1,2.8-11.2,0.2c-3.2-2.7-3.9-6.8-1.7-11.2c13.6-28.6,29.8-55.5,50.5-79.6
			c15.4-17.8,32.9-33.1,53-45.4c6.7-4.2,14.2-6.3,21.9-6.9C154.6,131,175.1,129.8,195.8,128.4z"/>
		<path d="M69.7,437.5c34.7-4.8,61.6-19.5,75.4-53.9c2.2,2.2,4.1,4.3,6.3,6.1c2.2,1.8,4.8,3.1,7.7,4.9c-1.2,4.4-2.1,9.2-3.9,13.7
			c-8.1,21-21.3,37.9-41,49.1c-19,10.8-39.5,16.4-61.4,16.7c-2.8,0-5.7-0.4-8.5-0.8c-3.8-0.4-6.3-2.5-7-6.2
			c-1.1-5.7-2.4-11.4-2.6-17.1c-0.9-21.2,2.5-41.7,12.3-60.6c11.1-21.5,28.1-36.8,51-45.2c0.9-0.3,1.8-0.5,2.3-0.7
			c4.1,4.3,8.1,8.4,12.1,12.5c-16.2,9.3-28.8,22-35.7,39.8C71.6,409,69.1,422.7,69.7,437.5z"/>
		<path d="M339.7,41c10.7-3.7,21.6-7.8,32.6-11.3c13.2-4.2,26.7-6.9,40.6-7.5c4.7-0.2,9.4,0.3,14.1,0.6c4,0.3,6.7,2.5,7.4,6.4
			c1.1,6.3,2.5,12.6,2.8,18.9c1,23.8-3.3,46.8-9.8,69.6c0,0.1-0.2,0.3-0.1,0.1C398.2,92.4,369.1,66.9,339.7,41z"/>
		<path class="st0" d="M301.8,206.3c-17.2,1.1-32.3-12.3-33.3-29.5c-1-17.2,12.3-32.3,29.5-33.3c17.2-1,32.3,12.4,33.4,29.5
			C332.4,190.2,319.1,205.2,301.8,206.3z"/>
	</g>
</g>
</svg>
