<?xml version="1.0" encoding="utf-8"?>
<!-- Generator: Adobe Illustrator 27.8.1, SVG Export Plug-In . SVG Version: 6.00 Build 0)  -->
<svg version="1.1" id="Layer_4" xmlns="http://www.w3.org/2000/svg" xmlns:xlink="http://www.w3.org/1999/xlink" x="0px" y="0px"
	 viewBox="0 0 72 72" style="enable-background:new 0 0 72 72;" xml:space="preserve">
<path d="M4.86,18.41v50.37h62.86V18.41H4.86z M12.52,26.53h22.19v15.58H12.52V26.53z M23.68,59.88H12.52v-9.93h11.17V59.88z
	 M41.16,59.88H29.99v-9.93h11.17V59.88z M58.63,59.88H47.46v-9.93h11.17V59.88z M59.29,42.37H40.84v-2.64h18.45V42.37z M59.29,36.04
	H40.84V33.4h18.45V36.04z M59.29,29.38H40.84v-2.64h18.45V29.38z"/>
<path d="M4.86,3.38v11.87v0.93h62.86v-0.93V3.38H4.86z M14.24,11.24c-0.76,0-1.38-0.62-1.38-1.38c0-0.76,0.62-1.38,1.38-1.38
	c0.76,0,1.38,0.62,1.38,1.38C15.62,10.62,15,11.24,14.24,11.24z M19.02,11.24c-0.76,0-1.38-0.62-1.38-1.38
	c0-0.76,0.62-1.38,1.38-1.38c0.76,0,1.38,0.62,1.38,1.38C20.4,10.62,19.78,11.24,19.02,11.24z M23.79,11.24
	c-0.76,0-1.38-0.62-1.38-1.38c0-0.76,0.62-1.38,1.38-1.38c0.76,0,1.38,0.62,1.38,1.38C25.17,10.62,24.55,11.24,23.79,11.24z"/>
</svg>
