<?xml version="1.0" encoding="utf-8"?>
<!-- Generator: Adobe Illustrator 28.1.0, SVG Export Plug-In . SVG Version: 6.00 Build 0)  -->
<svg version="1.1" id="Layer_5" xmlns="http://www.w3.org/2000/svg" xmlns:xlink="http://www.w3.org/1999/xlink" x="0px" y="0px"
	 viewBox="0 0 72 72" style="enable-background:new 0 0 72 72;" xml:space="preserve">
<g>
	<path class="st0" d="M51.86,14.25H20.33c-0.41,0-0.75,0.34-0.75,0.75v42.35c0,0.41,0.34,0.75,0.75,0.75h31.52
		c0.41,0,0.75-0.34,0.75-0.75V15C52.61,14.59,52.27,14.25,51.86,14.25z M51.11,56.6H21.08V15.75h30.02V56.6z"/>
	<path class="st0" d="M48.52,1.51H23.67c-5.74,0-10.41,4.67-10.41,10.41v47.62c0,5.74,4.67,10.41,10.41,10.41h24.86
		c5.74,0,10.41-4.67,10.41-10.41V11.92C58.94,6.18,54.26,1.51,48.52,1.51z M57.44,59.54c0,4.92-4,8.91-8.91,8.91H23.67
		c-4.91,0-8.91-4-8.91-8.91V11.92c0-4.91,4-8.91,8.91-8.91h24.86c4.92,0,8.91,4,8.91,8.91V59.54z"/>
	<path class="st0" d="M36.09,10.81c1.1,0,1.99-0.89,1.99-1.99c0-1.1-0.89-1.99-1.99-1.99S34.1,7.71,34.1,8.81
		C34.1,9.92,34.99,10.81,36.09,10.81z"/>
	<path class="st0" d="M42.3,62.27H29.89c-0.67,0-1.2,0.41-1.2,0.91c0,0.5,0.54,0.91,1.2,0.91H42.3c0.67,0,1.2-0.41,1.2-0.91
		C43.5,62.68,42.96,62.27,42.3,62.27z"/>
</g>
</svg>
