<?xml version="1.0" encoding="utf-8"?>
<!-- Generator: Adobe Illustrator 27.8.1, SVG Export Plug-In . SVG Version: 6.00 Build 0)  -->
<svg version="1.1" id="Layer_6" xmlns="http://www.w3.org/2000/svg" xmlns:xlink="http://www.w3.org/1999/xlink" x="0px" y="0px"
	 viewBox="0 0 72 72" style="enable-background:new 0 0 72 72;" xml:space="preserve">
<path d="M23.42,40.1c-0.49,0.49-0.74,1.14-0.74,1.79s0.25,1.3,0.74,1.79c0.48,0.48,1.11,0.74,1.79,0.74c0.68,0,1.31-0.26,1.79-0.74
	c0.99-0.99,0.99-2.6,0-3.59C26.02,39.11,24.41,39.11,23.42,40.1z"/>
<path d="M39.58,35.09c0-1.4-1.14-2.54-2.54-2.54s-2.53,1.14-2.53,2.54c0,1.4,1.14,2.53,2.53,2.53S39.58,36.48,39.58,35.09z"/>
<g>
	<path d="M57.1,30.2c-0.2,0-0.39,0.01-0.58,0.02c0.08-0.63,0.12-1.26,0.12-1.88c0-8.25-6.73-14.97-15.01-14.97
		c-7.46,0-13.66,5.41-14.8,12.6c-1.46-0.9-3.15-1.38-4.89-1.38c-5.17,0-9.38,4.2-9.38,9.36c0,0.63,0.07,1.26,0.2,1.88
		C6.57,35.43,1.31,40.41,1.31,46.57c0,5.93,4.84,10.76,10.79,10.76h17.79v-9.14l-2.2-2.2c-1.88,1.14-4.32,0.88-5.88-0.69
		c-1.88-1.88-1.88-4.94,0-6.82c1.88-1.88,4.94-1.88,6.82,0c0.93,0.93,1.41,2.16,1.41,3.41c0,0.82-0.25,1.63-0.67,2.38l3.04,3.01
		v10.04h3.5V39.77c-2.14-0.52-3.68-2.46-3.68-4.68c0-2.66,2.16-4.82,4.82-4.82c2.66,0,4.82,2.16,4.82,4.82
		c0,2.22-1.53,4.16-3.68,4.68v17.56h2.92V47.28l3.02-3c-1.08-1.87-0.79-4.26,0.75-5.8c0.91-0.91,2.12-1.41,3.41-1.41
		c1.29,0,2.5,0.5,3.41,1.41c0.94,0.94,1.41,2.17,1.41,3.41c0,1.23-0.47,2.47-1.41,3.41c-1.57,1.57-4,1.82-5.88,0.69l-2.2,2.2v9.14
		H57.1c7.5,0,13.6-6.09,13.6-13.57C70.7,36.28,64.6,30.2,57.1,30.2z"/>
	<path d="M50.08,43.69c0.99-0.99,0.99-2.6,0-3.59c-0.99-0.99-2.6-0.99-3.59,0c-0.49,0.49-0.74,1.14-0.74,1.79s0.25,1.3,0.74,1.79
		C47.48,44.67,49.09,44.67,50.08,43.69z"/>
</g>
</svg>
