<?xml version="1.0" encoding="utf-8"?>
<!-- Generator: Adobe Illustrator 28.1.0, SVG Export Plug-In . SVG Version: 6.00 Build 0)  -->
<svg version="1.1" id="Layer_4" xmlns="http://www.w3.org/2000/svg" xmlns:xlink="http://www.w3.org/1999/xlink" x="0px" y="0px"
	 viewBox="0 0 72 72" style="enable-background:new 0 0 72 72;" xml:space="preserve">
<style type="text/css">
	.st0{fill:#2E2D2C;}
</style>
<g>
	<path class="st0" d="M12.13,42.88h22.19c0.41,0,0.75-0.34,0.75-0.75V26.55c0-0.41-0.34-0.75-0.75-0.75H12.13
		c-0.41,0-0.75,0.34-0.75,0.75v15.58C11.38,42.55,11.72,42.88,12.13,42.88z M12.88,27.3h20.69v14.08H12.88V27.3z"/>
	<path class="st0" d="M40.78,49.22H29.61c-0.41,0-0.75,0.34-0.75,0.75v9.93c0,0.41,0.34,0.75,0.75,0.75h11.17
		c0.41,0,0.75-0.34,0.75-0.75v-9.93C41.53,49.55,41.19,49.22,40.78,49.22z M40.03,59.15h-9.67v-8.43h9.67V59.15z"/>
	<path class="st0" d="M23.3,49.22H12.13c-0.41,0-0.75,0.34-0.75,0.75v9.93c0,0.41,0.34,0.75,0.75,0.75H23.3
		c0.41,0,0.75-0.34,0.75-0.75v-9.93C24.05,49.55,23.72,49.22,23.3,49.22z M22.55,59.15h-9.67v-8.43h9.67V59.15z"/>
	<path class="st0" d="M58.25,49.22H47.08c-0.41,0-0.75,0.34-0.75,0.75v9.93c0,0.41,0.34,0.75,0.75,0.75h11.17
		c0.41,0,0.75-0.34,0.75-0.75v-9.93C59,49.55,58.67,49.22,58.25,49.22z M57.5,59.15h-9.67v-8.43h9.67V59.15z"/>
	<path class="st0" d="M67.33,2.66H4.48c-0.41,0-0.75,0.34-0.75,0.75v13.02v0.77v51.6c0,0.41,0.34,0.75,0.75,0.75h62.86
		c0.41,0,0.75-0.34,0.75-0.75v-51.6v-0.77V3.41C68.08,2.99,67.75,2.66,67.33,2.66z M66.58,4.16v11.52H5.23V4.16H66.58z M66.58,68.05
		H5.23V17.21v-0.02h61.36v0.02V68.05z"/>
	<path class="st0" d="M13.86,11.27c0.76,0,1.38-0.62,1.38-1.38c0-0.76-0.62-1.38-1.38-1.38c-0.76,0-1.38,0.62-1.38,1.38
		C12.48,10.65,13.1,11.27,13.86,11.27z"/>
	<path class="st0" d="M18.63,11.27c0.76,0,1.38-0.62,1.38-1.38c0-0.76-0.62-1.38-1.38-1.38c-0.76,0-1.38,0.62-1.38,1.38
		C17.25,10.65,17.87,11.27,18.63,11.27z"/>
	<path class="st0" d="M23.41,11.27c0.76,0,1.38-0.62,1.38-1.38c0-0.76-0.62-1.38-1.38-1.38c-0.76,0-1.38,0.62-1.38,1.38
		C22.02,10.65,22.64,11.27,23.41,11.27z"/>
	<path class="st0" d="M41.37,27.95h16.41c0.67,0,1.2-0.41,1.2-0.91s-0.54-0.91-1.2-0.91H41.37c-0.67,0-1.2,0.41-1.2,0.91
		S40.71,27.95,41.37,27.95z"/>
	<path class="st0" d="M41.37,32.87h16.41c0.67,0,1.2-0.41,1.2-0.91s-0.54-0.91-1.2-0.91H41.37c-0.67,0-1.2,0.41-1.2,0.91
		S40.71,32.87,41.37,32.87z"/>
	<path class="st0" d="M41.37,37.78h16.41c0.67,0,1.2-0.41,1.2-0.91s-0.54-0.91-1.2-0.91H41.37c-0.67,0-1.2,0.41-1.2,0.91
		S40.71,37.78,41.37,37.78z"/>
	<path class="st0" d="M41.37,42.69h16.41c0.67,0,1.2-0.41,1.2-0.91c0-0.5-0.54-0.91-1.2-0.91H41.37c-0.67,0-1.2,0.41-1.2,0.91
		C40.17,42.29,40.71,42.69,41.37,42.69z"/>
</g>
</svg>
