<?xml version="1.0" encoding="utf-8"?>
<!-- Generator: Adobe Illustrator 28.1.0, SVG Export Plug-In . SVG Version: 6.00 Build 0)  -->
<svg version="1.1" id="Layer_2" xmlns="http://www.w3.org/2000/svg" xmlns:xlink="http://www.w3.org/1999/xlink" x="0px" y="0px"
	 viewBox="0 0 72 72" style="enable-background:new 0 0 72 72;" xml:space="preserve" fill="#4284fb">
<g>
	<path d="M35.81,29.65c-3.54,0-6.43,2.88-6.43,6.43s2.88,6.43,6.43,6.43c3.55,0,6.43-2.88,6.43-6.43S39.36,29.65,35.81,29.65z
		 M35.81,41c-2.72,0-4.93-2.21-4.93-4.93s2.21-4.93,4.93-4.93c2.72,0,4.93,2.21,4.93,4.93S38.53,41,35.81,41z"/>
	<path d="M35.81,24.32c-6.48,0-11.75,5.27-11.75,11.75c0,6.48,5.27,11.75,11.75,11.75c6.48,0,11.75-5.27,11.75-11.75
		C47.56,29.6,42.29,24.32,35.81,24.32z M35.81,46.33c-5.65,0-10.25-4.6-10.25-10.25c0-5.65,4.6-10.25,10.25-10.25
		c5.65,0,10.25,4.6,10.25,10.25C46.06,41.73,41.46,46.33,35.81,46.33z"/>
	<path d="M35.81,19.18c-9.31,0-16.89,7.58-16.89,16.89c0,9.31,7.58,16.89,16.89,16.89c9.31,0,16.89-7.58,16.89-16.89
		C52.7,26.76,45.12,19.18,35.81,19.18z M35.81,51.47c-8.49,0-15.39-6.91-15.39-15.39c0-8.49,6.9-15.39,15.39-15.39
		c8.49,0,15.39,6.9,15.39,15.39C51.2,44.56,44.3,51.47,35.81,51.47z"/>
	<path d="M69.64,35.75l-4.02-4.02l-0.9,0.9l2.93,2.93h-8.62c-0.13-5.95-2.5-11.35-6.31-15.39l8.25-8.26l0,3.99l0,0.15l1.27,0v-5.68
		c0-0.16-0.07-0.32-0.2-0.45c-0.12-0.12-0.28-0.19-0.44-0.19c0,0,0,0,0,0l-5.68,0v1.27h4.14l-8.25,8.26
		c-4.05-3.86-9.48-6.27-15.46-6.41V4.27l2.93,2.92l0.9-0.9l-4.01-4.01c-0.22-0.22-0.68-0.23-0.9,0L31.25,6.3l0.9,0.9l2.93-2.93v8.6
		c-5.94,0.18-11.33,2.61-15.34,6.46l-8.16-8.43l4.15,0l0-1.27l-5.68,0c-0.16,0-0.32,0.07-0.45,0.19c-0.12,0.12-0.19,0.28-0.19,0.44
		l0,5.68l1.27,0V11.8l8.16,8.43c-3.77,4.04-6.12,9.42-6.25,15.34H3.79l2.92-2.93l-0.9-0.9L1.8,35.75c-0.11,0.11-0.18,0.28-0.18,0.45
		c0,0.17,0.06,0.34,0.17,0.44l4.02,4.02l0.9-0.9l-2.93-2.93h8.82c0.19,5.93,2.62,11.3,6.46,15.31l-8.49,8.13l0-4.15H9.3l0,5.68
		c0,0.15,0.06,0.31,0.18,0.43l0.02,0.02c0.12,0.12,0.28,0.19,0.44,0.19l5.68,0l0-1.27h-4.13l8.49-8.13
		c3.99,3.73,9.28,6.06,15.11,6.24v8.84l-2.93-2.93l-0.9,0.9l4.01,4.01c0.11,0.11,0.28,0.18,0.45,0.18c0.17,0,0.33-0.06,0.44-0.17
		l3.91-3.91l0.11-0.11l-0.9-0.9l-2.93,2.93v-8.84c5.92-0.14,11.29-2.49,15.33-6.27l8.27,8.27l-3.99,0l-0.15,0v1.27h5.68
		c0.16,0,0.32-0.07,0.45-0.2c0.12-0.12,0.19-0.28,0.19-0.44v-5.68h-1.27v4.14l-8.27-8.27c3.83-4,6.24-9.37,6.44-15.28h8.63
		l-2.93,2.93l0.9,0.9l4.01-4.01c0.11-0.11,0.18-0.28,0.18-0.45C69.81,36.03,69.75,35.86,69.64,35.75z M35.81,57.8
		c-11.98,0-21.73-9.75-21.73-21.73c0-11.98,9.75-21.73,21.73-21.73c11.98,0,21.73,9.75,21.73,21.73
		C57.54,48.06,47.79,57.8,35.81,57.8z"/>
</g>
</svg>
