<?xml version="1.0" encoding="utf-8"?>
<!-- Generator: Adobe Illustrator 27.8.1, SVG Export Plug-In . SVG Version: 6.00 Build 0)  -->
<svg version="1.1" id="Layer_2" xmlns="http://www.w3.org/2000/svg" xmlns:xlink="http://www.w3.org/1999/xlink" x="0px" y="0px"
	 viewBox="0 0 72 72" style="enable-background:new 0 0 72 72;" xml:space="preserve" fill="#363636">
<path d="M70.69,35.84l-4.33-4.33l-0.11-0.11l-1.75,1.75l2.33,2.33H59.3c-0.28-5.44-2.45-10.38-5.87-14.18L61,13.72v3.66h2.47v-6.65
	c0-0.68-0.55-1.24-1.24-1.24h-6.65v2.47h3.66l-7.58,7.58c-3.8-3.42-8.75-5.59-14.18-5.86V6.14l2.22,2.22l0.11,0.11l1.75-1.75
	l-4.44-4.44c-0.47-0.47-1.28-0.47-1.75,0l-4.33,4.33l-0.11,0.11l1.75,1.75l2.33-2.33v7.56C29.6,14,24.68,16.18,20.9,19.61
	l-7.64-7.64h3.66V9.5h-6.65c-0.68,0-1.24,0.55-1.24,1.24v6.65h2.47v-3.66l7.65,7.65c-3.38,3.79-5.54,8.71-5.81,14.11H5.68l2.22-2.22
	l0.11-0.11L6.26,31.4l-4.44,4.44c-0.48,0.48-0.48,1.27,0,1.75l4.33,4.33l0.11,0.11l1.75-1.75l-2.33-2.33h7.67
	c0.3,5.39,2.46,10.29,5.85,14.06l-7.7,7.7v-3.66H9.04v6.65c0,0.68,0.55,1.24,1.24,1.24h6.65v-2.47h-3.66l7.69-7.7
	c3.77,3.39,8.67,5.56,14.06,5.86v7.66l-2.22-2.22l-0.11-0.11l-1.75,1.75l4.44,4.44c0.23,0.23,0.54,0.36,0.87,0.36
	c0.33,0,0.64-0.13,0.87-0.36l4.33-4.33l0.11-0.11l-1.75-1.75l-2.33,2.33v-7.65c5.41-0.27,10.33-2.42,14.12-5.81l7.63,7.64h-3.66
	v2.47h6.65c0.68,0,1.24-0.56,1.24-1.24v-6.65H61v3.66l-7.63-7.63c3.43-3.78,5.61-8.71,5.91-14.13h7.54l-2.22,2.22l-0.11,0.11
	l1.75,1.75l4.44-4.44C71.17,37.11,71.17,36.32,70.69,35.84z M36.32,52.72c-8.83,0-16.01-7.18-16.01-16.01s7.18-16.01,16.01-16.01
	c8.83,0,16.01,7.18,16.01,16.01S45.15,52.72,36.32,52.72z"/>
<path d="M36.32,25.71c-6.07,0-11,4.94-11,11s4.94,11,11,11s11-4.94,11-11S42.39,25.71,36.32,25.71z M36.32,42.39
	c-3.13,0-5.68-2.55-5.68-5.68c0-3.13,2.55-5.68,5.68-5.68c3.13,0,5.68,2.55,5.68,5.68C42,39.84,39.45,42.39,36.32,42.39z"/>
</svg>
