<?xml version="1.0" encoding="utf-8"?>
<!-- Generator: Adobe Illustrator 28.1.0, SVG Export Plug-In . SVG Version: 6.00 Build 0)  -->
<svg version="1.1" id="Layer_8" xmlns="http://www.w3.org/2000/svg" xmlns:xlink="http://www.w3.org/1999/xlink" x="0px" y="0px"
	 viewBox="0 0 72 72" style="enable-background:new 0 0 72 72;" xml:space="preserve" fill="#4284fb">
<g>
	<path class="st0" d="M36.05,1.16c-19.17,0-34.76,15.64-34.76,34.85c0,19.22,15.59,34.85,34.76,34.85
		c19.22,0,34.85-15.63,34.85-34.85C70.9,16.79,55.27,1.16,36.05,1.16z M36.05,69.37c-18.34,0-33.26-14.96-33.26-33.35
		c0-18.39,14.92-33.35,33.26-33.35c18.39,0,33.35,14.96,33.35,33.35C69.4,54.4,54.44,69.37,36.05,69.37z"/>
	<path class="st0" d="M45.96,35.75l-0.85-0.55l0.77-0.66c1.79-1.53,2.81-3.72,2.81-6.01c0-3.76-2.78-7.07-6.46-7.71l-0.62-0.11V15.3
		c0-0.59-0.44-1.04-1.03-1.04s-1.04,0.45-1.04,1.04v5.31h-8.59V15.3c0-0.59-0.45-1.04-1.04-1.04s-1.04,0.45-1.04,1.04v5.31h-5.58
		c-0.59,0-1.04,0.45-1.04,1.04c0,0.59,0.45,1.04,1.04,1.04h5.58v25.69h-5.58c-0.59,0-1.04,0.45-1.04,1.04
		c0,0.59,0.45,1.03,1.04,1.03h5.58v5.31c0,0.59,0.45,1.03,1.04,1.03s1.04-0.44,1.04-1.03v-5.31h8.59v5.31
		c0,0.59,0.45,1.03,1.04,1.03s1.03-0.44,1.03-1.03v-5.36l0.69-0.05c4.1-0.32,7.31-3.75,7.31-7.82
		C49.61,39.74,48.24,37.22,45.96,35.75z M31.13,22.59h9.72c3.28,0,5.95,2.67,5.95,5.95c0,3.28-2.67,5.95-5.95,5.95h-9.72V22.59z
		 M41.77,48.28H31.13V36.47h10.64c3.28,0,5.95,2.67,5.95,5.94C47.62,45.65,44.95,48.28,41.77,48.28z"/>
</g>
</svg>
