<?xml version="1.0" encoding="utf-8"?>
<!-- Generator: Adobe Illustrator 28.1.0, SVG Export Plug-In . SVG Version: 6.00 Build 0)  -->
<svg version="1.1" id="Layer_6" xmlns="http://www.w3.org/2000/svg" xmlns:xlink="http://www.w3.org/1999/xlink" x="0px" y="0px"
	 viewBox="0 0 72 72" style="enable-background:new 0 0 72 72;" xml:space="preserve">
<style type="text/css">
	.st0{fill:#2E2D2C;}
</style>
<path class="st0" d="M57.25,28.98c0.03-0.37,0.04-0.75,0.04-1.12c0-8.67-7.07-15.72-15.76-15.72c-7.44,0-13.73,5.07-15.35,12.2
	c-1.35-0.64-2.83-0.98-4.34-0.98c-5.59,0-10.13,4.53-10.13,10.11c0,0.37,0.02,0.74,0.06,1.11c-2.85,0.04-5.54,1.14-7.66,3.13
	c-2.32,2.18-3.65,5.23-3.65,8.39c0,6.35,5.18,11.51,11.54,11.51h45c7.91,0,14.35-6.42,14.35-14.32
	C71.35,35.48,65.04,29.11,57.25,28.98z M28.11,41.8c0,0.89-0.35,1.73-0.97,2.36c-0.63,0.63-1.46,0.97-2.36,0.97
	c-0.89,0-1.73-0.35-2.36-0.97c-1.26-1.26-1.26-3.46,0-4.72c0.65-0.65,1.5-0.97,2.36-0.97c0.85,0,1.71,0.33,2.36,0.97
	C27.77,40.07,28.11,40.91,28.11,41.8z M41.06,34.35c0,1.84-1.5,3.33-3.33,3.33s-3.33-1.5-3.33-3.33c0-1.84,1.5-3.33,3.33-3.33
	S41.06,32.51,41.06,34.35z M47.67,39.45c0.65-0.65,1.51-0.97,2.36-0.97c0.85,0,1.7,0.32,2.35,0.96l0.01,0.01
	c0.62,0.63,0.97,1.46,0.97,2.35c0,0.89-0.34,1.73-0.97,2.36c-1.3,1.3-3.42,1.3-4.71,0C46.43,42.9,46.43,40.7,47.67,39.45z M57,56.11
	H44.36v-7.66l2.88-2.88l0.37,0.23c1.87,1.13,4.24,0.85,5.76-0.67c0.89-0.89,1.38-2.07,1.38-3.34c0-1.26-0.49-2.45-1.38-3.34
	c-0.89-0.89-2.07-1.38-3.33-1.38c-1.26,0-2.45,0.49-3.34,1.38c-1.5,1.49-1.8,3.83-0.74,5.67l0.21,0.37l-3.42,3.39l-0.03,0.03v8.18
	h-4.31V39.03l0.43-0.1c2.12-0.52,3.6-2.4,3.6-4.58c0-2.6-2.12-4.72-4.72-4.72c-2.6,0-4.72,2.12-4.72,4.72c0,2.18,1.48,4.06,3.6,4.58
	l0.43,0.1v17.08h-4.94v-8.18l-3.47-3.43l0.21-0.37c1.08-1.88,0.79-4.16-0.72-5.66c-0.89-0.89-2.08-1.38-3.34-1.38c0,0,0,0,0,0
	c-1.26,0-2.44,0.49-3.33,1.38c-0.89,0.89-1.38,2.08-1.38,3.34s0.49,2.45,1.38,3.33c1.52,1.52,3.89,1.79,5.76,0.67l0.37-0.23
	l2.88,2.88v7.66H12c-5.53,0-10.04-4.49-10.04-10.01c0-2.74,1.16-5.4,3.18-7.29c1.88-1.77,4.29-2.72,6.82-2.72
	c0.21,0,0.43,0.01,0.65,0.02c0.24,0.01,0.46-0.08,0.61-0.26c0.15-0.18,0.22-0.42,0.17-0.64c-0.12-0.57-0.18-1.16-0.18-1.73
	c0-4.75,3.87-8.61,8.63-8.61c1.59,0,3.14,0.44,4.49,1.27c0.21,0.13,0.48,0.15,0.71,0.04c0.23-0.1,0.39-0.32,0.43-0.56
	c1.1-6.93,7.01-11.97,14.06-11.97c7.86,0,14.26,6.38,14.26,14.22c0,0.59-0.04,1.19-0.11,1.79c-0.03,0.22,0.04,0.44,0.2,0.6
	s0.37,0.24,0.59,0.24c0.18-0.01,0.36-0.01,0.54-0.01c7.09,0,12.85,5.75,12.85,12.81C69.85,50.36,64.08,56.11,57,56.11z"/>
</svg>
