<svg xmlns="http://www.w3.org/2000/svg" viewBox="9 9 36 36" id="AI" xmlns:v="https://vecta.io/nano"><path d="M25.4 12.405a3.45 3.45 0 0 0-1.561-.336c-.529.004-1.075.119-1.577.33-1.291.543-2.189 1.648-2.415 2.966-.627-.11-1.227-.086-1.781.071a3.35 3.35 0 0 0-1.529.924 3.76 3.76 0 0 0-.877 1.551 4.64 4.64 0 0 0-.091 2.119c-.785.215-1.485.764-1.979 1.552-.251.398-.437.838-.554 1.309-.119.481-.159.965-.119 1.439a3.74 3.74 0 0 0 1.269 2.554 3.74 3.74 0 0 0-1.269 2.554c-.04.475 0 .959.119 1.439a4.53 4.53 0 0 0 .554 1.31c.495.787 1.195 1.336 1.979 1.551a4.62 4.62 0 0 0 .091 2.118c.172.594.476 1.13.877 1.552a3.35 3.35 0 0 0 1.529.924c.555.158 1.154.184 1.781.071.226 1.317 1.123 2.422 2.415 2.965.502.212 1.047.326 1.577.331h.03c.55 0 1.065-.113 1.531-.336 1.267-.605 1.964-1.908 1.964-3.667V16.072c0-1.759-.698-3.061-1.964-3.666zm-.092 12.448c-.102-.069-.225-.093-.348-.07a.46.46 0 0 0-.296.196c-.069.103-.094.227-.071.349a2.4 2.4 0 0 0 .762 1.36 2.48 2.48 0 0 0 .253.196 2.5 2.5 0 0 0-.253.196 2.4 2.4 0 0 0-.762 1.361c-.023.121.002.244.071.348a.46.46 0 0 0 .295.195c.122.024.244 0 .347-.069s.173-.175.197-.297c.069-.348.226-.632.464-.844a1.64 1.64 0 0 1 .473-.289l-.006 10.211c0 1.385-.509 2.391-1.435 2.832a2.62 2.62 0 0 1-1.127.245h-.027c-.409-.004-.834-.093-1.226-.257-1.111-.468-1.819-1.434-1.898-2.585.241-.641.63-1.109 1.156-1.393.311-.168.669-.277 1.119-.34.048.452.209.89.48 1.302a.46.46 0 0 0 .294.199c.121.023.245.001.347-.067.213-.14.272-.427.132-.64-.244-.37-.358-.761-.34-1.16.017-.407.176-.832.459-1.227.148-.208.099-.498-.109-.645-.101-.072-.226-.1-.346-.08s-.229.088-.3.188a3.39 3.39 0 0 0-.553 1.188c-.424.047-1.032.149-1.622.467-.681.368-1.191.946-1.517 1.72-.578.138-1.117.137-1.602-.003a2.44 2.44 0 0 1-1.113-.67c-.3-.315-.528-.72-.659-1.17a3.72 3.72 0 0 1-.062-1.724l.166.008a9.61 9.61 0 0 0 1-.029c.123-.01.236-.066.317-.16a.46.46 0 0 0 .111-.337.46.46 0 0 0-.497-.429l-.902.029-.402-.028-.035-.011-.068-.012-.007-.001c-.693-.058-1.348-.5-1.795-1.213-.198-.315-.345-.665-.437-1.037a3.48 3.48 0 0 1-.094-1.142 2.87 2.87 0 0 1 1.254-2.166h5.924c.256 0 .464-.209.464-.464s-.208-.464-.464-.464h-5.924a2.87 2.87 0 0 1-1.254-2.166 3.5 3.5 0 0 1 .094-1.142c.092-.373.24-.722.438-1.038.446-.709 1.096-1.15 1.787-1.212l.009-.001a.41.41 0 0 0 .073-.012h.002c.157-.024.294-.035.438-.039.25-.008.545.002.902.029.245.024.477-.173.497-.428a.46.46 0 0 0-.428-.497l-1-.03-.166.008c-.114-.596-.092-1.191.062-1.723a2.85 2.85 0 0 1 .659-1.17 2.44 2.44 0 0 1 1.113-.67c.488-.14 1.027-.14 1.602-.002.325.773.835 1.352 1.517 1.72.589.318 1.197.42 1.622.467.098.41.284.809.553 1.188a.46.46 0 0 0 .3.189c.125.023.245-.007.345-.079.208-.148.257-.438.109-.646-.283-.396-.441-.821-.459-1.227-.018-.4.097-.79.34-1.16.14-.213.081-.5-.132-.641s-.5-.08-.641.132a2.91 2.91 0 0 0-.48 1.302c-.45-.063-.808-.172-1.119-.34-.526-.284-.915-.752-1.156-1.394.079-1.151.787-2.116 1.898-2.583.394-.165.817-.254 1.226-.258h.024c.404 0 .795.085 1.131.245.925.443 1.435 1.449 1.435 2.832l.006 10.211a1.66 1.66 0 0 1-.473-.288c-.239-.213-.395-.497-.464-.845a.46.46 0 0 0-.196-.296zm-2.793-1c.204 0 .391-.135.447-.341.067-.246-.079-.501-.325-.568-.759-.207-1.33-.583-1.696-1.116-.371-.541-.52-1.239-.407-1.916a.46.46 0 0 0-.382-.531.47.47 0 0 0-.532.382 3.64 3.64 0 0 0 .369 2.28c-.219.144-.499.262-.814.345-.467.123-.959.148-1.346.067a.46.46 0 0 0-.547.359c-.051.249.109.495.359.547.532.111 1.16.084 1.77-.078a3.69 3.69 0 0 0 1.125-.494c.473.487 1.098.839 1.858 1.047a.48.48 0 0 0 .121.016zm-.121 6.078c-.761.208-1.386.561-1.858 1.047a3.69 3.69 0 0 0-1.125-.494c-.609-.161-1.238-.189-1.77-.078-.25.052-.411.298-.359.548a.46.46 0 0 0 .547.358c.386-.08.877-.057 1.346.067a2.77 2.77 0 0 1 .814.346c-.363.677-.498 1.503-.369 2.278a.46.46 0 0 0 .187.303c.08.058.173.087.269.087a.5.5 0 0 0 .076-.006c.252-.042.423-.28.383-.532a2.64 2.64 0 0 1 .407-1.915c.366-.533.937-.908 1.696-1.116a.46.46 0 0 0 .325-.567c-.066-.245-.318-.39-.568-.325zm7.294-2.116c.361 0 .695-.202.865-.518h1.514l1.157 1.158a1.01 1.01 0 0 0-.042.283c0 .541.44.981.982.981a.98.98 0 0 0 .981-.981c0-.541-.44-.982-.981-.982-.098 0-.193.014-.284.041l-.965-.965.965-.965a.98.98 0 0 0 .284.042c.541 0 .981-.44.981-.982s-.44-.982-.981-.982-.982.44-.982.982c0 .096.015.191.042.283l-1.157 1.158h-1.514c-.17-.316-.504-.518-.865-.518-.542 0-.982.44-.982.981s.44.982.982.982zm3.109 7.778c-.542 0-.982.44-.982.982 0 .361.201.695.518.865v1.215l-.862.863a.96.96 0 0 0-.283-.042c-.542 0-.982.44-.982.981s.44.982.982.982a.98.98 0 0 0 .981-.982.99.99 0 0 0-.041-.283l1.134-1.134v-1.6c.316-.17.518-.504.518-.865 0-.542-.441-.982-.982-.982zm-2.128 2.26c0-.361-.201-.695-.518-.865v-6.425c.316-.17.518-.504.518-.865 0-.542-.44-.982-.981-.982s-.982.44-.982.982c0 .361.202.695.519.865v6.425a.99.99 0 0 0-.519.865c0 .542.44.982.982.982a.98.98 0 0 0 .981-.982zm6.434-5.135c-.541 0-.981.44-.981.982a.99.99 0 0 0 .041.283l-1.134 1.135v1.6a.99.99 0 0 0-.518.866.98.98 0 0 0 .981.981c.541 0 .982-.44.982-.981a.99.99 0 0 0-.518-.866v-1.215l.862-.862a.99.99 0 0 0 .283.041.98.98 0 0 0 .981-.981c0-.541-.44-.983-.981-.983zM32.888 32c-.17-.316-.504-.518-.865-.518a.98.98 0 1 0 0 1.962c.361 0 .695-.201.865-.518h2.085l1.7-1.7a1.01 1.01 0 0 0 .284.042c.541 0 .981-.44.981-.982a.98.98 0 0 0-.981-.981c-.541 0-.982.44-.982.981a.96.96 0 0 0 .042.284L34.588 32h-1.7zm7.444-2.273v-1.775l-1.118-1.118.981-.981.137-.136v-1.776c.316-.17.518-.504.518-.865 0-.541-.44-.981-.982-.981a.98.98 0 0 0-.981.981c0 .361.201.695.518.865v1.391l-1.038 1.038h-1.48c-.17-.316-.504-.518-.866-.518a.98.98 0 0 0-.981.981c0 .541.44.982.981.982a.99.99 0 0 0 .866-.518h1.48l1.038 1.038v1.391c-.316.17-.518.504-.518.865 0 .542.44.982.981.982s.982-.44.982-.982c0-.361-.201-.695-.517-.865zm-9.145-15.536c.097 0 .191-.014.283-.042l.862.862v1.216c-.316.17-.518.504-.518.865 0 .541.44.981.982.981a.98.98 0 0 0 .981-.981c0-.361-.201-.695-.518-.865v-1.601l-1.134-1.134c.027-.091.041-.186.041-.283 0-.541-.44-.982-.981-.982s-.982.44-.982.982.441.982.983.982zm-2.482 9.779c0 .541.44.982.982.982a.98.98 0 0 0 .981-.982c0-.361-.201-.695-.518-.865V16.68c.316-.17.518-.504.518-.865 0-.541-.44-.982-.981-.982s-.982.44-.982.982c0 .361.202.695.519.865v6.426c-.317.169-.519.503-.519.865zm6.323-7.021v1.6l1.134 1.135c-.027.092-.041.187-.041.284 0 .541.44.982.981.982s.981-.44.981-.982-.44-.982-.981-.982c-.096 0-.191.014-.283.041l-.862-.862v-1.216c.316-.17.518-.504.518-.865 0-.541-.44-.982-.982-.982a.98.98 0 0 0-.981.982c0 .361.201.695.517.865zm1.929 7.413c.541 0 .981-.44.981-.982s-.44-.982-.981-.982a.98.98 0 0 0-.284.042l-1.565-1.564-.135-.136h-2.085c-.17-.316-.504-.518-.865-.518a.98.98 0 0 0-.981.981c0 .541.44.982.981.982.361 0 .695-.202.865-.518h1.7l1.429 1.429a.95.95 0 0 0-.042.284c0 .542.44.982.982.982z"/></svg>