<svg width="178" height="178" viewBox="0 0 178 178" xmlns="http://www.w3.org/2000/svg"><title>glyph-fullcolor</title><g fill="none" fill-rule="evenodd"><path d="M0 0h178v178H0z"/><path d="M127.294 116.977c-2.016 5.19-4.608 9.514-7.488 12.685-2.88 3.46-6.336 6.343-10.08 8.361-3.744 2.018-7.776 3.748-12.097 4.613-4.32.865-9.216 1.442-14.112 1.442-7.488 0-13.824-.865-18.72-2.307-4.897-1.73-9.217-4.036-12.097-7.496-3.168-3.46-5.184-7.496-6.336-12.685-1.152-5.19-2.016-11.244-2.016-18.164 0-12.109.864-22.776 2.88-31.425 2.016-8.65 4.896-15.857 8.928-21.335 4.032-5.478 9.217-9.803 15.265-12.397 6.048-2.595 13.536-4.037 21.888-4.037 6.912 0 12.96.577 18.145 2.019 4.896 1.441 9.216 3.748 12.384 6.919 3.168 3.171 5.76 7.496 7.2 12.685 1.44 5.19 2.304 11.533 2.304 19.317 0 8.938-.576 17.01-1.728 23.641-.576 7.208-2.304 12.974-4.32 18.164z" fill="#FFF"/><path d="M138.962 125.42c-2.628 6.764-6.007 12.4-9.76 16.534-3.755 4.51-8.26 8.268-13.14 10.898-4.88 2.63-10.136 4.886-15.767 6.013-5.631 1.127-12.013 1.88-18.395 1.88-9.76 0-18.02-1.128-24.401-3.007-6.382-2.255-12.013-5.261-15.767-9.771-4.13-4.51-6.757-9.77-8.259-16.535-1.502-6.764-2.628-14.656-2.628-23.675 0-15.784 1.126-29.688 3.754-40.962 2.628-11.274 6.382-20.669 11.638-27.809 5.255-7.14 12.013-12.777 19.896-16.159 7.884-3.382 17.644-5.261 28.53-5.261 9.01 0 16.894.752 23.651 2.63 6.382 1.88 12.013 4.886 16.143 9.02 4.13 4.133 7.508 9.77 9.385 16.535 1.877 6.764 3.003 15.031 3.003 25.178 0 11.65-.75 22.172-2.252 30.815-.751 9.395-3.004 16.911-5.631 23.675zM59.376 93.851h25.527l22.9-55.993-48.427 55.993zm44.298-14.656l-18.77 14.656-18.77 45.096 51.805-59.752h-14.265z" fill="#F9533B"/></g></svg>